<svg xmlns="http://www.w3.org/2000/svg" viewBox="0 0 922.15 922.15"><defs><style>.cls-1{fill:#ea9971;}.cls-2{fill:#0a2144;}</style></defs><g id="Layer_2" data-name="Layer 2"><circle class="cls-1" cx="461.08" cy="461.08" r="461.08"/><path class="cls-2" d="M148.77,739.25a19,19,0,0,1-16.18-28.93L355.46,346.64a19,19,0,0,1,16-9.07h.19a19,19,0,0,1,16,8.75c17.87,27.89,35.93,56.22,53.69,84.2,14.93,23.51,30,47.31,44.92,71L563,377.69a19,19,0,0,1,32.48.32L789.7,705.69A19,19,0,1,1,757,725.05L578.8,424.34,502.52,547.43a19,19,0,0,1-16.09,9h-.06a19,19,0,0,1-16.08-8.9c-20.18-32.13-40.71-64.65-61-96.64-12.33-19.43-24.81-39-37.27-58.53L165,730.17A19,19,0,0,1,148.77,739.25Z"/><path class="cls-2" d="M517.54,203.71H378a5.29,5.29,0,0,0-5.28,5.28v94.9a5.29,5.29,0,0,0,5.28,5.28H517.54a5.29,5.29,0,0,0,5.28-5.28V209A5.29,5.29,0,0,0,517.54,203.71ZM381.73,300.13V277.05l23.08,23.08Zm35.63,0,.13-.13-35.76-35.76v-27l62.88,62.88Zm39.8,0,.13-.13-75.56-75.56V212.76h21.7l-.49.48,86.89,86.89Zm56.62,0h-11.4l.13-.13-87.25-87.24h32.42l66.1,66.09Zm0-34.08-53.29-53.29h21.56l31.73,31.72Zm0-34.37-18.92-18.92h18.92Z"/><path class="cls-2" d="M370.87,349.33a9,9,0,0,1-9-9V192a9,9,0,0,1,18.09,0V340.29A9,9,0,0,1,370.87,349.33Z"/></g></svg>