<svg xmlns="http://www.w3.org/2000/svg" viewBox="0 0 2600.72 1021.48"><defs><style>.cls-1{fill:#0a2144;}.cls-2{fill:none;stroke:#000;stroke-linecap:round;stroke-miterlimit:10;stroke-width:13.96px;}.cls-3{fill:#e56823;}</style></defs><g id="Layer_1" data-name="Layer 1"><path class="cls-1" d="M1204.45,501.16V653.93q0,35.05,1.07,44.14t7.75,13.92q6.69,4.82,23.82,4.81h5.62v12.31h-118V716.8h9.09q19,0,24.75-5.48a21.26,21.26,0,0,0,6.69-13.11q.93-7.62.94-44.28V587.58q0-38.54-3.61-47.09t-9.63-10.7q-6-2.14-21-2.14h-7.22V515.34q47.61-4.82,73.84-14.18Zm-51.64-111.83a27.25,27.25,0,0,1,8.16-19.8,26.58,26.58,0,0,1,19.66-8.3,26.19,26.19,0,0,1,19.54,8.3,27.48,27.48,0,0,1,8,19.8,27.78,27.78,0,0,1-8,20.06,26.19,26.19,0,0,1-19.54,8.3,26.58,26.58,0,0,1-19.66-8.3A27.55,27.55,0,0,1,1152.81,389.33Z"/><path class="cls-1" d="M1275.35,736.07v-72h10.43q18.2,62.34,65,62.33,20.34,0,30.37-12.3t10-27q0-17.13-10.7-28.1-11-11-42.54-26.48-33.18-16.32-47.62-32.11-14.44-15.51-14.45-38.26,0-21.67,15.52-41.33T1335,501.16q28.62,0,47.36,23.28,4-4,10.43-19.53h9.9v67.68h-9.9q-5.35-24.33-20.73-41.86t-36.26-17.53q-16.05,0-26,9.9t-9.9,23q0,14.45,11,24.88,10.69,10.71,40.94,24.35,45.47,20.6,55.64,40.13,10.17,19.8,10.17,38,0,28.63-18.86,46.55t-47.49,17.93q-30.24,0-53.78-24.88-7.21,8-11.77,23Z"/><path class="cls-1" d="M1458.08,736.07v-72h10.43q18.2,62.34,65,62.33,20.34,0,30.37-12.3t10-27q0-17.13-10.7-28.1-11-11-42.54-26.48-33.18-16.32-47.62-32.11-14.44-15.51-14.45-38.26,0-21.67,15.52-41.33t43.61-19.67q28.62,0,47.36,23.28,4-4,10.43-19.53h9.9v67.68h-9.9q-5.35-24.33-20.73-41.86t-36.26-17.53q-16.05,0-26,9.9t-9.9,23q0,14.45,11,24.88,10.69,10.71,40.94,24.35,45.47,20.6,55.64,40.13,10.17,19.8,10.17,38,0,28.63-18.86,46.55t-47.49,17.93q-30.24,0-53.78-24.88-7.21,8-11.77,23Z"/><path class="cls-1" d="M1706.9,501.16V653.93q0,35.05,1.06,44.14t7.76,13.92q6.69,4.82,23.82,4.81h5.61v12.31h-118V716.8h9.09q19,0,24.75-5.48a21.31,21.31,0,0,0,6.69-13.11q.93-7.62.94-44.28V587.58q0-38.54-3.62-47.09t-9.63-10.7q-6-2.14-21-2.14h-7.22V515.34q47.61-4.82,73.84-14.18Zm-51.64-111.83a27.25,27.25,0,0,1,8.16-19.8,26.58,26.58,0,0,1,19.66-8.3,26.19,26.19,0,0,1,19.54,8.3,27.52,27.52,0,0,1,8,19.8,27.82,27.82,0,0,1-8,20.06,26.19,26.19,0,0,1-19.54,8.3,26.58,26.58,0,0,1-19.66-8.3A27.55,27.55,0,0,1,1655.26,389.33Z"/><path class="cls-1" d="M1775.92,619.15q0-50.29,33.71-84.14t82.94-33.85q49.5,0,83.21,34t33.71,84q0,55.38-34.25,87.08t-82.67,31.71q-48.42,0-82.53-32.24T1775.92,619.15Zm44.42,1.34q0,58.32,19,81.73t53.24,23.41q35,0,53.65-23.41t18.59-81.73q0-57.79-18.46-82.41t-53.78-24.61q-35.05,0-53.64,24.48T1820.34,620.49Z"/><path class="cls-1" d="M2105,501.16h7.23q6.15,16.59,6.95,45.22,19.26-22.74,40.4-34a92.81,92.81,0,0,1,44.15-11.24q26.22,0,42.94,11T2268.2,539q4.82,15.91,4.82,46.42v68.49q0,38,1.34,46.28a16.77,16.77,0,0,0,8.43,12.44q7.08,4.15,26.08,4.15v12.31h-112.1V716.8h5.08q19.26,0,25.15-5.61a20.86,20.86,0,0,0,6.69-13.12q.81-7.49.8-44.14V583.3q0-25.95-2.54-37.06t-13.64-19.66q-11.1-8.57-28.23-8.56-19.53,0-37.32,11.63t-33.58,34.92v89.36q0,38,1.47,46.28a17.19,17.19,0,0,0,8.56,12.44q7.1,4.15,26.36,4.15v12.31H2044.8V716.8q18.47,0,25.69-3.74a16.48,16.48,0,0,0,9-11.37q1.74-7.63,1.74-47.76V588.65q0-38.26-1.47-46.42a17.17,17.17,0,0,0-8.56-12.31q-7.1-4.14-26.36-4.15v-12.3A343.28,343.28,0,0,0,2105,501.16Z"/><path class="cls-1" d="M631.83,979.32h3.34v36.95h-3.34a28.32,28.32,0,0,0-5.06-11.13q-13.92,15.72-35.54,15.71-22.86,0-37.37-14.46t-14.5-38.27a66.59,66.59,0,0,1,6.69-29.43q6.69-13.8,18.66-20.49A53,53,0,0,1,591,911.51a46.74,46.74,0,0,1,21.42,4.86q9.62,4.86,14.35,10.77a38.59,38.59,0,0,0,4.05-13.69h3.42l.93,40h-3.34q-3.51-21.31-14.27-29.64a38.76,38.76,0,0,0-24.31-8.31q-16.56,0-26.32,13.45t-9.76,38.49q0,23.73,10.65,36.37t26.52,12.63a40.89,40.89,0,0,0,17.34-4.12q8.88-4.12,14-14A52.33,52.33,0,0,0,631.83,979.32Z"/><path class="cls-1" d="M691.4,987q0-14.62,9.8-24.46a34.51,34.51,0,0,1,48.3,0q9.79,9.87,9.8,24.42,0,16.09-10,25.31a34.1,34.1,0,0,1-24,9.22,33.62,33.62,0,0,1-24-9.38Q691.41,1002.74,691.4,987Zm12.91.38q0,17,5.53,23.77t15.47,6.8q10.19,0,15.6-6.8t5.4-23.77q0-16.8-5.37-24t-15.63-7.16q-10.18,0-15.59,7.12T704.31,987.33Z"/><path class="cls-1" d="M826.88,952.65H829a42.32,42.32,0,0,1,2,13.14,40.72,40.72,0,0,1,11.75-9.87,26.93,26.93,0,0,1,12.83-3.27q7.62,0,12.48,3.19a14.35,14.35,0,0,1,6.26,7.81q1.41,4.64,1.4,13.5v19.91a127,127,0,0,0,.39,13.45,4.91,4.91,0,0,0,2.45,3.62q2.06,1.2,7.58,1.2v3.58H853.56v-3.58H855c3.74,0,6.17-.54,7.32-1.63a6.12,6.12,0,0,0,1.94-3.81q.24-2.17.23-12.83V976.52a53.9,53.9,0,0,0-.74-10.77,10.07,10.07,0,0,0-4-5.71,13,13,0,0,0-8.21-2.49,19.5,19.5,0,0,0-10.85,3.38A36.07,36.07,0,0,0,831,971.08v26q0,11,.43,13.45a5,5,0,0,0,2.49,3.62c1.37.8,3.93,1.2,7.66,1.2v3.58h-32.2v-3.58q5.37,0,7.47-1.09a4.73,4.73,0,0,0,2.6-3.3q.51-2.22.51-13.88v-19c0-7.42-.14-11.91-.43-13.5A4.94,4.94,0,0,0,817,961q-2.06-1.2-7.66-1.2v-3.59A99.81,99.81,0,0,0,826.88,952.65Z"/><path class="cls-1" d="M973.09,958.79H953.88v38.5q0,8.87.78,11.94a8.61,8.61,0,0,0,3.3,4.94,9,9,0,0,0,5.41,1.86q5.6,0,9.72-6.37l2.49,1.47a16.71,16.71,0,0,1-7.12,7.74,19.42,19.42,0,0,1-9.52,2.61,15.55,15.55,0,0,1-9.84-3.31,13.78,13.78,0,0,1-5.29-7.74q-1-4.42-1-15.55V958.79h-9.25v-3.57a16.19,16.19,0,0,0,11.43-5.37q5.05-5.22,6.45-14.62h2.49v20h19.21Z"/><path class="cls-1" d="M1042.15,968.9a26.57,26.57,0,0,1,8.6-11.58q5.94-4.68,11.62-4.67a10.46,10.46,0,0,1,8.09,3.19,9.63,9.63,0,0,1,3,6.53,5.52,5.52,0,0,1-1.52,3.89,4.84,4.84,0,0,1-3.69,1.63c-2.6,0-4.57-1.91-5.91-5.75q-1.41-3.89-4.2-3.89-3.35,0-8,4.55a21,21,0,0,0-6,9.45,53.94,53.94,0,0,0-1.32,13.45v11.36q0,10.19.27,12.83a5.38,5.38,0,0,0,2.22,4c1.29.94,3.6,1.4,6.92,1.4h2.17v3.58h-33.83v-3.58h1.64c3.11,0,5.32-.43,6.65-1.28a5.15,5.15,0,0,0,2.37-3.62,124.32,124.32,0,0,0,.39-13.37v-18q0-10.26-.28-12.87a5.49,5.49,0,0,0-2.21-4q-2-1.44-6.92-1.44h-1.64v-3.5a109.23,109.23,0,0,0,19.14-4.59Q1041.92,958.79,1042.15,968.9Z"/><path class="cls-1" d="M1116.43,987q0-14.62,9.8-24.46a34.49,34.49,0,0,1,48.29,0q9.8,9.87,9.8,24.42,0,16.09-10,25.31a34.11,34.11,0,0,1-24,9.22,33.62,33.62,0,0,1-24-9.38Q1116.43,1002.74,1116.43,987Zm12.91.38q0,17,5.52,23.77t15.47,6.8q10.2,0,15.6-6.8t5.4-23.77q0-16.8-5.36-24t-15.64-7.16q-10.18,0-15.59,7.12T1129.34,987.33Z"/><path class="cls-1" d="M1254.39,912v85.09q0,10.19.28,12.83a5.4,5.4,0,0,0,2.21,4c1.3.94,3.61,1.4,6.92,1.4h1.87v3.58h-34.06v-3.58h2.18q4.67,0,6.64-1.28a5.13,5.13,0,0,0,2.38-3.62,124.32,124.32,0,0,0,.39-13.37v-63q0-10-1.79-12.64t-8.71-2.6v-3.58a67.54,67.54,0,0,0,11.16-1.09,40.51,40.51,0,0,0,8.82-2.18Z"/><path class="cls-1" d="M1488.26,979.32h3.34v36.95h-3.34a28.46,28.46,0,0,0-5.06-11.13q-13.92,15.72-35.54,15.71-22.87,0-37.37-14.46t-14.5-38.27a66.58,66.58,0,0,1,6.68-29.43q6.69-13.8,18.67-20.49a53,53,0,0,1,26.29-6.69,46.74,46.74,0,0,1,21.42,4.86q9.6,4.86,14.35,10.77a38.37,38.37,0,0,0,4-13.69h3.43l.93,40h-3.34q-3.51-21.31-14.28-29.64a38.76,38.76,0,0,0-24.3-8.31q-16.56,0-26.33,13.45t-9.75,38.49q0,23.73,10.65,36.37t26.52,12.63a40.92,40.92,0,0,0,17.34-4.12q8.87-4.12,14-14A52.52,52.52,0,0,0,1488.26,979.32Z"/><path class="cls-1" d="M1605.54,976.76h-44.41q-.32,4.59-.31,6.84,0,16.8,5.25,25.24t15.67,8.44q14.15,0,20.06-12.68h3.74a21.73,21.73,0,0,1-9.88,12.41,30.91,30.91,0,0,1-31.38.38,32.48,32.48,0,0,1-11.78-11.55q-4.59-7.46-4.59-18.12,0-15.08,8.86-25.08a28.43,28.43,0,0,1,22.17-10q12.52,0,19.37,7.62T1605.54,976.76Zm-13.61-3.11a26.1,26.1,0,0,0,.23-3.19q0-6.84-4-10.62a13.85,13.85,0,0,0-9.84-3.77q-14.16,0-16.88,17.58Z"/><path class="cls-1" d="M1673.35,952.65h2.1q1.8,4.83,2,13.14a40.55,40.55,0,0,1,11.74-9.87,26.93,26.93,0,0,1,12.83-3.27q7.62,0,12.48,3.19a14.41,14.41,0,0,1,6.27,7.81q1.4,4.64,1.4,13.5v19.91a128.24,128.24,0,0,0,.38,13.45,4.91,4.91,0,0,0,2.45,3.62q2.07,1.2,7.59,1.2v3.58H1700v-3.58h1.48q5.6,0,7.31-1.63a6,6,0,0,0,1.94-3.81q.24-2.17.24-12.83V976.52a54.68,54.68,0,0,0-.74-10.77,10.14,10.14,0,0,0-4-5.71,13,13,0,0,0-8.2-2.49,19.45,19.45,0,0,0-10.85,3.38,35.93,35.93,0,0,0-9.76,10.15v26q0,11,.42,13.45a5,5,0,0,0,2.49,3.62q2.07,1.2,7.66,1.2v3.58h-32.2v-3.58q5.37,0,7.47-1.09a4.77,4.77,0,0,0,2.61-3.3q.49-2.22.5-13.88v-19c0-7.42-.14-11.91-.43-13.5a5,5,0,0,0-2.48-3.57c-1.38-.8-3.93-1.2-7.67-1.2v-3.59A99.81,99.81,0,0,0,1673.35,952.65Z"/><path class="cls-1" d="M1819.57,958.79h-19.21v38.5q0,8.87.77,11.94a8.58,8.58,0,0,0,3.31,4.94,8.92,8.92,0,0,0,5.4,1.86c3.74,0,7-2.12,9.73-6.37l2.49,1.47a16.71,16.71,0,0,1-7.12,7.74,19.48,19.48,0,0,1-9.53,2.61,15.59,15.59,0,0,1-9.84-3.31,13.83,13.83,0,0,1-5.29-7.74c-.69-2.95-1-8.13-1-15.55V958.79H1780v-3.57a16.19,16.19,0,0,0,11.43-5.37q5.05-5.22,6.46-14.62h2.49v20h19.21Z"/><path class="cls-1" d="M1925.72,976.76h-44.4q-.32,4.59-.31,6.84,0,16.8,5.25,25.24t15.67,8.44q14.14,0,20.06-12.68h3.73a21.71,21.71,0,0,1-9.87,12.41,30.91,30.91,0,0,1-31.38.38,32.59,32.59,0,0,1-11.79-11.55q-4.58-7.46-4.58-18.12,0-15.08,8.86-25.08a28.41,28.41,0,0,1,22.17-10q12.51,0,19.36,7.62T1925.72,976.76Zm-13.6-3.11a26.1,26.1,0,0,0,.23-3.19q0-6.84-4-10.62a13.83,13.83,0,0,0-9.84-3.77q-14.14,0-16.87,17.58Z"/><path class="cls-1" d="M1998.13,968.9a26.54,26.54,0,0,1,8.59-11.58q6-4.68,11.63-4.67a10.48,10.48,0,0,1,8.09,3.19,9.66,9.66,0,0,1,3,6.53,5.51,5.51,0,0,1-1.51,3.89,4.87,4.87,0,0,1-3.7,1.63c-2.59,0-4.56-1.91-5.91-5.75q-1.39-3.89-4.2-3.89-3.35,0-8,4.55a21,21,0,0,0-6,9.45,53.94,53.94,0,0,0-1.32,13.45v11.36q0,10.19.27,12.83a5.38,5.38,0,0,0,2.22,4c1.29.94,3.6,1.4,6.92,1.4h2.18v3.58h-33.83v-3.58h1.63q4.66,0,6.65-1.28a5.15,5.15,0,0,0,2.37-3.62,124.32,124.32,0,0,0,.39-13.37v-18q0-10.26-.27-12.87a5.47,5.47,0,0,0-2.22-4q-1.93-1.44-6.92-1.44h-1.63v-3.5a109.15,109.15,0,0,0,19.13-4.59Q1997.89,958.79,1998.13,968.9Z"/><line class="cls-2" x1="6.98" y1="843.44" x2="2593.74" y2="843.44"/></g><g id="Layer_2" data-name="Layer 2"><path class="cls-3" d="M227.11,755.6a25.81,25.81,0,0,1-22-39.28L507.82,222.38a25.78,25.78,0,0,1,21.74-12.32h.26a25.8,25.8,0,0,1,21.72,11.88c24.27,37.88,48.81,76.36,72.93,114.35,20.27,31.94,40.7,64.27,61,96.49L789.72,264.54a25.8,25.8,0,0,1,44.12.44L1097.6,710a25.8,25.8,0,0,1-44.39,26.3L811.16,327.9,707.55,495.08a25.81,25.81,0,0,1-21.85,12.21h-.07a25.79,25.79,0,0,1-21.85-12.08c-27.41-43.65-55.29-87.81-82.87-131.27-16.75-26.38-33.7-53-50.62-79.48L249.12,743.27A25.76,25.76,0,0,1,227.11,755.6Z"/><path class="cls-3" d="M728,28.25H538.39a7.19,7.19,0,0,0-7.18,7.18V164.31a7.19,7.19,0,0,0,7.18,7.18H728a7.18,7.18,0,0,0,7.17-7.18V35.43A7.18,7.18,0,0,0,728,28.25ZM543.5,159.2V127.85l31.35,31.35Zm48.4,0,.17-.17L543.5,110.46V73.8l85.4,85.4Zm54.05,0,.17-.17L543.5,56.41V40.54H573l-.67.66,118,118Zm76.9,0H707.37l.17-.17L589.05,40.54h44l89.78,89.77Zm0-46.28L650.47,40.54h29.28l43.1,43.09Zm0-46.68-25.7-25.7h25.7Z"/><path class="cls-3" d="M528.75,226a12.28,12.28,0,0,1-12.28-12.28V12.28a12.29,12.29,0,0,1,24.57,0V213.75A12.28,12.28,0,0,1,528.75,226Z"/></g></svg>